# xmcd
#
# Track frame offsets:
#	150
#	15947
#	30902
#	52102
#	64352
#	77670
#	91020
#	106897
#	121102
#	135432
#	144675
#	158855
#	169522
#	185850
#
# Disc length: 2710 seconds
#
# Revision: 0
# Processed by: cddbd v1.5.2PL0 Copyright (c) Steve Scherf et al.
# Submitted via: audiograbber 1.83.01
#
DISCID=ac0a940e
DTITLE=Antonio Carlos and Renato - Antonio Carlos and Renato
DYEAR=1999
DGENRE=Forró
TTITLE0=Vem amor
TTITLE1=Forró e paixão
TTITLE2=Pedindo amor
TTITLE3=É Pra quebrar a cama
TTITLE4=Nóis Não,Vive sem Muié
TTITLE5=Eu só quero um xodó
TTITLE6=Lembrança de um beijo
TTITLE7=Lobo mau
TTITLE8=Mineirinho
TTITLE9=A Galinha da minha mulher
TTITLE10=Bobeou....a gente pimba
TTITLE11=Bica d'agua
TTITLE12=Bicho bom é mulher
TTITLE13=Forró do Xenhenhem
EXTD=Informação passada em 10/1/2011 por:\ncarlosenes@bol.com.br [31] 9721.6096
EXTT0=
EXTT1=
EXTT2=
EXTT3=
EXTT4=
EXTT5=
EXTT6=
EXTT7=
EXTT8=
EXTT9=
EXTT10=
EXTT11=
EXTT12=
EXTT13=
PLAYORDER=
